<svg width="168" height="40" viewBox="0 0 168 40" fill="none" xmlns="http://www.w3.org/2000/svg">
<path d="M0.727511 38.552L10.1072 25.5347L1.24716 12.5175H9.63952L14.7061 20.8579L19.6168 12.5175H27.8013L19.2011 25.3788L28.5028 38.5H19.9806L14.4723 29.9777L8.88603 38.448L0.727511 38.552ZM43.6356 39.2795C40.8815 39.2795 38.4305 38.6819 36.2826 37.4867C34.152 36.2742 32.4718 34.6373 31.242 32.576C30.0121 30.4974 29.3972 28.1416 29.3972 25.5087C29.3972 23.5167 29.761 21.6893 30.4885 20.0264C31.216 18.3462 32.238 16.8912 33.5544 15.6614C34.8709 14.4142 36.4125 13.4528 38.1793 12.7773C39.9634 12.0844 41.9035 11.738 43.9994 11.738C45.5583 11.738 47.0134 11.9199 48.3645 12.2836C49.7329 12.6474 50.9974 13.2103 52.1579 13.9725L50.6249 19.6886C49.7589 18.9611 48.7802 18.4242 47.6889 18.0777C46.5976 17.7313 45.4544 17.5581 44.2592 17.5581C42.5617 17.5581 41.098 17.8699 39.8682 18.4934C38.6556 19.117 37.7203 20.0178 37.0621 21.1956C36.4038 22.3735 36.0747 23.8025 36.0747 25.4828C36.0747 27.9771 36.8022 29.9344 38.2572 31.3548C39.7296 32.7579 41.7302 33.4594 44.2592 33.4594C45.593 33.4594 46.8488 33.2255 48.0267 32.7579C49.2219 32.2902 50.2612 31.6579 51.1446 30.8611L52.6256 36.5773C51.3091 37.4261 49.8801 38.0843 48.3385 38.552C46.7968 39.037 45.2292 39.2795 43.6356 39.2795ZM67.5371 39.2795C64.9908 39.2795 62.7304 38.6905 60.7557 37.5127C58.7983 36.3348 57.2567 34.7066 56.1308 32.6279C55.0049 30.5493 54.4419 28.1763 54.4419 25.5087C54.4419 23.4994 54.7624 21.6547 55.4033 19.9745C56.0442 18.2942 56.9449 16.8392 58.1055 15.6094C59.2833 14.3795 60.6691 13.4269 62.2627 12.7513C63.8736 12.0758 65.6317 11.738 67.5371 11.738C70.0488 11.738 72.162 12.275 73.8769 13.3489C75.5917 14.4229 76.8735 15.8172 77.7223 17.5321L76.1373 19.221V14.3103L82.633 11.8679V38.5H76.7869V32.0563L77.7223 33.4854C76.8735 35.2002 75.5917 36.5946 73.8769 37.6686C72.162 38.7425 70.0488 39.2795 67.5371 39.2795ZM68.5245 33.4594C69.9622 33.4594 71.244 33.1389 72.3699 32.498C73.4958 31.8398 74.3879 30.9218 75.0461 29.7439C75.7043 28.5487 76.0334 27.137 76.0334 25.5087C76.0334 23.8805 75.7043 22.4688 75.0461 21.2736C74.3879 20.0784 73.4958 19.1603 72.3699 18.5194C71.244 17.8785 69.9622 17.5581 68.5245 17.5581C67.0868 17.5581 65.7963 17.8785 64.6531 18.5194C63.5272 19.1603 62.6351 20.0784 61.9769 21.2736C61.336 22.4688 61.0155 23.8805 61.0155 25.5087C61.0155 27.137 61.336 28.5487 61.9769 29.7439C62.6351 30.9218 63.5272 31.8398 64.6531 32.498C65.7963 33.1389 67.0868 33.4594 68.5245 33.4594ZM89.2813 38.5V2.69607L95.9328 0.565502V38.5H89.2813ZM114.946 39.2795C112.054 39.2795 109.507 38.7079 107.307 37.5646C105.125 36.4041 103.419 34.7932 102.189 32.7319C100.976 30.6706 100.37 28.2715 100.37 25.5347C100.37 23.5254 100.708 21.6806 101.383 20.0004C102.076 18.3202 103.046 16.8652 104.293 15.6354C105.558 14.3882 107.03 13.4269 108.711 12.7513C110.408 12.0758 112.261 11.738 114.271 11.738C116.453 11.738 118.402 12.1277 120.117 12.9072C121.832 13.6694 123.252 14.752 124.378 16.155C125.521 17.5408 126.318 19.169 126.768 21.0397C127.236 22.8932 127.297 24.9198 126.95 27.1197H106.632C106.615 28.4881 106.952 29.6833 107.645 30.7052C108.355 31.7272 109.36 32.5327 110.659 33.1216C111.958 33.6932 113.483 33.979 115.232 33.979C116.808 33.979 118.324 33.7625 119.779 33.3295C121.251 32.8964 122.611 32.2555 123.858 31.4068L125.028 36.5253C124.179 37.0969 123.183 37.5906 122.04 38.0063C120.896 38.4221 119.71 38.7338 118.48 38.9417C117.267 39.1669 116.09 39.2795 114.946 39.2795ZM107.022 22.3908H120.507C120.437 20.6413 119.848 19.2729 118.74 18.2856C117.649 17.2809 116.107 16.7786 114.115 16.7786C112.14 16.7786 110.512 17.2809 109.23 18.2856C107.948 19.2729 107.212 20.6413 107.022 22.3908ZM128.083 38.552L137.462 25.5347L128.602 12.5175H136.995L142.061 20.8579L146.972 12.5175H155.156L146.556 25.3788L155.858 38.5H147.336L141.827 29.9777L136.241 38.448L128.083 38.552Z" fill="white"/>
<path d="M162.64 39.2795C161.428 39.2795 160.38 38.8984 159.497 38.1362C158.613 37.3568 158.172 36.3261 158.172 35.0443C158.172 34.1782 158.371 33.4247 158.769 32.7838C159.185 32.1429 159.73 31.6493 160.406 31.3028C161.082 30.9564 161.826 30.7832 162.64 30.7832C163.87 30.7832 164.918 31.1729 165.784 31.9524C166.668 32.7146 167.109 33.7452 167.109 35.0443C167.109 35.8931 166.902 36.6379 166.486 37.2788C166.088 37.9197 165.551 38.4134 164.875 38.7598C164.199 39.1063 163.455 39.2795 162.64 39.2795Z" fill="#666CDA"/>
</svg>
